@startuml

'skinparam linetype ortho
'skinparam linetype polyline

package ctune #lightgrey {
    package network #white {
        component                            NetworkUtils
        component                            RadioBrowser
        interface "Radio Browser web API" as RadioBrowserAPI
        interface "OpenSSL lib"           as OpenSSL
        interface "Sockets lib"           as Sockets
        interface "libCurl"               as Curl

        [RadioBrowser] -->  [NetworkUtils]

        NetworkUtils --( OpenSSL : "uses"
        NetworkUtils --( Sockets : "uses"
        NetworkUtils --( Curl    : "uses"
        OpenSSL      ..> RadioBrowserAPI : https
        Sockets      ..> RadioBrowserAPI : http/dns
    }

    package parser #white {
        component JSON
        interface JSONlib as "json-c lib"
        component KVPairs

        JSON --( JSONlib : uses
    }

    package fs #white {
        component PlaybackLog
        component Settings
        component XDG
        component Plugin

        package "plugins/player/" as plugins_in #lightgrey {
            file      "ffmpeg.so" as ffmpeg_plugin
            file      "vlc.so" as vlc_plugin
            interface libffmpeg
            interface libvlc

            ffmpeg_plugin -down-( libffmpeg : uses
            vlc_plugin    -down-( libvlc : uses
        }

        package "plugins/output/" as plugins_out #lightgrey {
            package "sound servers" as sound_servers {
                file "pipewire.so" as pw_plugin
                file "pulse.so" as pulse_plugin
                file "alsa.so" as alsa_plugin
                file "sdl.so" as sdl_plugin
                file "sndio.so" as sndio_plugin

                interface libpipewire
                interface libalsa
                interface libpulseaudio
                interface libsld2
                interface libsndio
            }

            package "audio recorders" as audio_recorders {
                file "wave.so" as wave_plugin
                file "mp3.so" as mp3_plugin

                interface libmp3lame
            }

            pw_plugin -down-( libpipewire : uses
            pulse_plugin -down-( libpulseaudio : uses
            alsa_plugin -down-( libalsa : uses
            sdl_plugin -down-( libsld2 : uses
            sndio_plugin -down-( libsndio : uses
            mp3_plugin -down-( libmp3lame : uses
        }

        plugins_out -[hidden]- plugins_in

        package "config dir" #lightgrey {
            file cfgfile as "ctune.cfg"
            file favfile as "ctune.fav"
        }

        package "log dir" #lightgrey {
            file playlog as "playlog.txt"
            file logfile as "ctune.log"
        }

        Plugin .[#RoyalBlue]..> ffmpeg_plugin
        Plugin .[#RoyalBlue]..> vlc_plugin
        Plugin .[#RoyalBlue]..> pw_plugin
        Plugin .[#RoyalBlue]..> pulse_plugin
        Plugin .[#RoyalBlue]..> alsa_plugin
        Plugin .[#RoyalBlue]..> sdl_plugin
        Plugin .[#RoyalBlue]..> sndio_plugin
        Plugin .[#RoyalBlue]..> wave_plugin
        Plugin .[#RoyalBlue]..> mp3_plugin

        Settings -> XDG
        Settings -down-> cfgfile
        Settings -down-> favfile

        PlaybackLog -down-> playlog
    }

    package audio #white {
        interface AudioOutput
        interface FileOutput
    }

'    player -[hidden]- audio
'    sound_servers -down[hidden]- audio_recorders
    audio_recorders -down[hidden]-- plugins_in
'    audio -[hidden]- audio_recorders
    plugins_in -left[hidden]- plugins_out

    AudioOutput -- pw_plugin
    AudioOutput -- pulse_plugin
    AudioOutput -- alsa_plugin
    AudioOutput -- sdl_plugin
    AudioOutput -- sndio_plugin
    FileOutput  -- mp3_plugin
    FileOutput  -- wave_plugin

    package player #white {
        component RadioPlayer
        interface Player

        RadioPlayer -down-( Player
    }

    Player -- ffmpeg_plugin
    Player -- vlc_plugin
    RadioPlayer --( AudioOutput
    RadioPlayer --( FileOutput

    package cli #white {
        component CLI
    }

    package ui #white {
        component UI
    }

    package logger #white {
        interface log
        interface logDbg
        component Logger
        component LogQueue
        component LogWriter

        log .up. Logger
        logDbg .up. Logger

        Logger -up-> LogQueue : enqueue msg
        Logger --> LogWriter : spool
        LogWriter -right-> LogQueue : dequeue msg
        LogWriter -up--> logfile

        note bottom of log    : Release build\nmessage interface
        note bottom of logDbg : Debug build\nmessage interface

        note "**Callback:**\n- resume() : void" as LogCB1 #lightblue
        LogQueue .[#blue].  LogCB1
        LogCB1   .[#blue].> LogWriter
    }

    interface "ctune_errno" as iErr1
    component ctune_err
    iErr1 - ctune_err
    note top of ctune_err : global ctune-specific\nerror number

    component Controller
    component "driver\n(main)" as driver

    note left of driver : Spools up:\n· ctune_err\n· Settings\n· Logger\n· PlaybackLog\n· Controller\n· UI


    driver --> CLI
    driver --> Controller
    Settings --> Plugin

    RadioBrowser -->   JSON

    Controller <--    UI
    Controller  -->   RadioPlayer
    Controller  ----> NetworkUtils
    Controller  -->   RadioBrowser
    Controller  --->  PlaybackLog
    Controller  -->   Settings

    interface iXDG as "XDG"
    iXDG -- XDG
    Settings    ----> JSON
    Settings    ----> KVPairs
    driver --( iXDG


    note "**Callbacks:**\n- setCurrStation( RadioStationInfo_t * ) : void\n- printSongInfo( const char * ) : void\n- printVolume( int ) : void\n- printPlaybackState( bool ) : void\n- printSearchingState( bool ) : void" as Callbacks1 #lightblue
    Controller .[#blue].  Callbacks1
    Callbacks1 .[#blue].> UI

    note "**Callbacks:**\n- songChangeEvent( const char * ) : void\n- volumeChangeEvent( const int ) : void" as Callbacks2 #lightblue
    RadioPlayer .[#blue].  Callbacks2
    Callbacks2  .[#blue].> Controller

    note "**Callbacks:**\n- setSearchState( enum ) : bool" as Callbacks3 #lightblue
    RadioBrowser .[#blue].  Callbacks3
    Callbacks3   .[#blue].> Controller

    note "**Callbacks:**\n- modVolume( int ) : int" as Callbacks4 #lightblue
    UI .[#blue]. Callbacks4
    Callbacks4 .[#blue].> Settings

    note "**Callback:**\n- printError( const char * ) : void" as Callbacks5 #lightblue
    ctune_err .[#blue]. Callbacks5
    Callbacks5 .[#blue].> UI

'    note "**Callback:**\n- playbackCtrl( enum ) : bool\n- songChangeEvent( const char * ) : void" as Callbacks6 #lightblue
'    AudioOutput .[#blue]. Callbacks6
'    Callbacks6 .[#blue].> Player
}
@enduml