@startuml
'skinparam linetype ortho
'skinparam linetype polyline

package ui #lightgrey {
    component UI
    component EventQueue
    component Resizer
    interface " " as iEventQueue #green
    interface " " as iResizer #green

    EventQueue -- iEventQueue
    Resizer -- iResizer
    UI --> EventQueue
    UI --> Resizer

'    note top of iResizer : Used by all <b>dialog</b>s and <b>window</b>s

    package definitions #white {
        component Language
        component KeyDescription
        component KeyBinding
        component Theme
        component Icons
        interface " " as iLanguage #green
        interface " " as iTheme #green
        interface " " as iKeyBinding #green
        interface " " as iIcons #green

        Language -down- iLanguage
        Theme -down- iTheme
        KeyBinding -down- iKeyBinding
        Icons -down- iIcons

        KeyBinding ---> KeyDescription
        KeyBinding -> Language
    }

    UI --> KeyBinding
    UI --> Language
    UI --> Icons
    UI --> Theme

    package widget #white {
        component BorderWin
        component ScrollBar
        component SlideMenu
        component Dialog
        component ScrollWin
        component Form

        Dialog    *-- ScrollWin
        Dialog    *-- ScrollBar
        Dialog    *--- BorderWin
        SlideMenu *-- ScrollBar
        Form      *-right- Dialog
    }


    package window #white {
        component MainWin
        component RSListWin
        component BrowserWin

        BrowserWin *-left- RSListWin
        MainWin *-down- RSListWin
        MainWin *-down- BrowserWin
    }

    package dialog #white {
        component ContextHelp
        component RSFind
        component RSInfo
        component RSEdit
        component OptionsMenu

        ContextHelp *-- Dialog
    }

'    dialog -[#purple]--( iKeyBinding
'    dialog -[#purple]--( iResizer


    BrowserWin  *- SlideMenu
    OptionsMenu *-- SlideMenu
    RSFind      *-- Form
    RSInfo      *-- Dialog
    RSEdit      *-- Form
    OptionsMenu *-- BorderWin

    UI      --> OptionsMenu
    UI      --> ContextHelp
    UI      --> RSFind
    UI      --> RSInfo
    UI      --> RSEdit
    UI      --> MainWin



    note "**Interface/Callback:**\ntext( TextID : enum ) : const char *" as LanguageCB #lightblue
    note "**Interface/Callback:**\nicon( IconID : enum ) : const char *" as IconCB #lightblue
'    note "**Interface/Callback:**\nattribute( RegionID : enum ) : int" as ThemeCB #lightblue
'    note "**Interface/Callback:**\ngetAction( ContextID: enum, Key: int ) : ActionID" as KeyBindingCB #lightblue

    LanguageCB .up[#blue]..> iLanguage
    IconCB .up[#blue]..> iIcons
'    ThemeCB .[#blue].> Theme
'    KeyBindingCB .[#blue].> KeyBinding
}

@enduml